<svg width="28" height="28" viewBox="0 0 28 28" fill="none" xmlns="http://www.w3.org/2000/svg">
<g id="magnifying-glass-solid (1) 1" clip-path="url(#clip0_2_17)">
<path id="Vector" d="M22.0735 11.0367C22.0735 13.4723 21.2829 15.7221 19.951 17.5474L26.6686 24.2702C27.3319 24.9335 27.3319 26.0106 26.6686 26.6739C26.0053 27.3372 24.9282 27.3372 24.2649 26.6739L17.5474 19.951C15.7221 21.2882 13.4723 22.0735 11.0367 22.0735C4.94001 22.0735 0 17.1335 0 11.0367C0 4.94001 4.94001 0 11.0367 0C17.1335 0 22.0735 4.94001 22.0735 11.0367ZM11.0367 18.6776C12.0402 18.6776 13.0337 18.4799 13.9608 18.096C14.8878 17.712 15.7301 17.1491 16.4396 16.4396C17.1491 15.7301 17.712 14.8878 18.096 13.9608C18.4799 13.0337 18.6776 12.0402 18.6776 11.0367C18.6776 10.0333 18.4799 9.03976 18.096 8.11273C17.712 7.1857 17.1491 6.34338 16.4396 5.63387C15.7301 4.92435 14.8878 4.36153 13.9608 3.97755C13.0337 3.59356 12.0402 3.39592 11.0367 3.39592C10.0333 3.39592 9.03976 3.59356 8.11273 3.97755C7.1857 4.36153 6.34338 4.92435 5.63387 5.63387C4.92435 6.34338 4.36153 7.1857 3.97755 8.11273C3.59356 9.03976 3.39592 10.0333 3.39592 11.0367C3.39592 12.0402 3.59356 13.0337 3.97755 13.9608C4.36153 14.8878 4.92435 15.7301 5.63387 16.4396C6.34338 17.1491 7.1857 17.712 8.11273 18.096C9.03976 18.4799 10.0333 18.6776 11.0367 18.6776Z" fill="#007676" fill-opacity="0.49"/>
</g>
<defs>
<clipPath id="clip0_2_17">
<rect width="27.1674" height="27.1674" fill="white"/>
</clipPath>
</defs>
</svg>
